<?xml version="1.0" encoding="utf-8"?>
<!-- Generator: Adobe Illustrator 25.4.1, SVG Export Plug-In . SVG Version: 6.00 Build 0)  -->
<svg version="1.1" id="Layer_1" xmlns="http://www.w3.org/2000/svg" xmlns:xlink="http://www.w3.org/1999/xlink" x="0px" y="0px"
	 viewBox="0 0 1280 800" style="enable-background:new 0 0 1280 800;" xml:space="preserve">
<style type="text/css">
	.st0{fill:#FF1D25;}
</style>
<rect x="1024" class="st0" width="256" height="133.33"/>
<rect x="1024" y="532" class="st0" width="256" height="133.33"/>
<rect x="1024" y="665" class="st0" width="256" height="133.33"/>
<rect x="768" y="133" class="st0" width="256" height="133.33"/>
<rect x="768" y="333" class="st0" width="256" height="66"/>
<rect x="768" y="532" class="st0" width="256" height="133.33"/>
<rect x="512" class="st0" width="256" height="133.33"/>
<rect x="512" y="133" class="st0" width="256" height="133.33"/>
<rect x="512" y="399.33" class="st0" width="256" height="66.67"/>
<rect x="512" y="665" class="st0" width="256" height="133.33"/>
<rect x="256" class="st0" width="256" height="133.33"/>
<rect x="256" y="333" class="st0" width="256" height="66.33"/>
<rect x="256" y="466" class="st0" width="256" height="66.33"/>
<rect y="133" class="st0" width="256" height="133.33"/>
<rect x="0" y="266" class="st0" width="256" height="67"/>
<rect y="532" class="st0" width="256" height="67"/>
<rect y="665" class="st0" width="256" height="133.33"/>
</svg>
