<?xml version="1.0" encoding="utf-8"?>
<!-- Generator: Adobe Illustrator 26.0.3, SVG Export Plug-In . SVG Version: 6.00 Build 0)  -->
<svg version="1.1" id="Layer_1" xmlns="http://www.w3.org/2000/svg" xmlns:xlink="http://www.w3.org/1999/xlink" x="0px" y="0px"
	 viewBox="0 0 1280 800" style="enable-background:new 0 0 1280 800;" xml:space="preserve">
<style type="text/css">
	.st0{fill:#231F20;}
	.st1{fill:none;}
</style>
<g>
	<rect x="1260" y="0" class="st0" width="15" height="800"/>
	<rect x="1240" y="0" class="st0" width="15" height="800"/>
	<rect x="1220" y="0" class="st0" width="15" height="800"/>
	<rect x="1200" y="0" class="st0" width="15" height="800"/>
	<rect x="1180" y="0" class="st0" width="15" height="800"/>
	<rect x="1160" y="0" class="st0" width="15" height="800"/>
	<rect x="1140" y="0" class="st0" width="15" height="800"/>
	<rect x="1120" y="0" class="st0" width="15" height="800"/>
	<rect x="1100" y="0" class="st0" width="15" height="800"/>
	<rect x="1080" y="0" class="st0" width="15" height="800"/>
	<rect x="1060" y="0" class="st0" width="15" height="800"/>
	<rect x="1040" y="0" class="st0" width="15" height="800"/>
	<rect x="1020" y="0" class="st0" width="15" height="800"/>
	<rect x="1000" y="0" class="st0" width="15" height="800"/>
	<rect x="980" y="0" class="st0" width="15" height="800"/>
	<rect x="960" y="0" class="st0" width="15" height="800"/>
	<rect x="940" y="0" class="st0" width="15" height="800"/>
	<rect x="920" y="0" class="st0" width="15" height="800"/>
	<rect x="900" y="0" class="st0" width="15" height="800"/>
	<rect x="880" y="0" class="st0" width="15" height="800"/>
	<rect x="860" y="0" class="st0" width="15" height="800"/>
	<rect x="840" y="0" class="st0" width="15" height="800"/>
	<rect x="820" y="0" class="st0" width="15" height="800"/>
	<rect x="800" y="0" class="st0" width="15" height="800"/>
	<rect x="780" y="0" class="st0" width="15" height="800"/>
	<rect x="760" y="0" class="st0" width="15" height="800"/>
	<rect x="740" y="0" class="st0" width="15" height="800"/>
	<rect x="720" y="0" class="st0" width="15" height="800"/>
	<rect x="700" y="0" class="st0" width="15" height="800"/>
	<rect x="680" y="0" class="st0" width="15" height="800"/>
	<rect x="660" y="0" class="st0" width="15" height="800"/>
	<rect x="640" y="0" class="st0" width="15" height="800"/>
	<rect x="620" y="0" class="st0" width="15" height="800"/>
	<rect x="600" y="0" class="st0" width="15" height="800"/>
	<rect x="580" y="0" class="st0" width="15" height="800"/>
	<rect x="560" y="0" class="st0" width="15" height="800"/>
	<rect x="540" y="0" class="st0" width="15" height="800"/>
	<rect x="520" y="0" class="st0" width="15" height="800"/>
	<rect x="500" y="0" class="st0" width="15" height="800"/>
	<rect x="480" y="0" class="st0" width="15" height="800"/>
	<rect x="460" y="0" class="st0" width="15" height="800"/>
	<rect x="440" y="0" class="st0" width="15" height="800"/>
	<rect x="420" y="0" class="st0" width="15" height="800"/>
	<rect x="400" y="0" class="st0" width="15" height="800"/>
	<rect x="380" y="0" class="st0" width="15" height="800"/>
	<rect x="360" y="0" class="st0" width="15" height="800"/>
	<rect x="340" y="0" class="st0" width="15" height="800"/>
	<rect x="320" y="0" class="st0" width="15" height="800"/>
	<rect x="300" y="0" class="st0" width="15" height="800"/>
	<rect x="280" y="0" class="st0" width="15" height="800"/>
	<rect x="260" y="0" class="st0" width="15" height="800"/>
	<rect x="240" y="0" class="st0" width="15" height="800"/>
	<rect x="220" y="0" class="st0" width="15" height="800"/>
	<rect x="200" y="0" class="st0" width="15" height="800"/>
	<rect x="180" y="0" class="st0" width="15" height="800"/>
	<rect x="160" y="0" class="st0" width="15" height="800"/>
	<rect x="140" y="0" class="st0" width="15" height="800"/>
	<rect x="120" y="0" class="st0" width="15" height="800"/>
	<rect x="100" y="0" class="st0" width="15" height="800"/>
	<rect x="80" y="0" class="st0" width="15" height="800"/>
	<rect x="60" y="0" class="st0" width="15" height="800"/>
	<rect x="40" y="0" class="st0" width="15" height="800"/>
	<rect x="20" y="0" class="st0" width="15" height="800"/>
	<rect y="0" class="st0" width="15" height="800"/>
</g>
<rect x="1275" y="247.3" class="st1" width="5" height="56.1"/>
</svg>
